<svg width="49" height="30" viewBox="0 0 49 30" fill="none" xmlns="http://www.w3.org/2000/svg">
<g clip-path="url(#clip0_2659_1780)">
<path d="M17.7666 3.21883H30.9348V26.8799H17.7666V3.21883Z" fill="#FF5F00"/>
<path d="M18.6029 15.0495C18.6029 10.2421 20.8602 5.97797 24.3299 3.21883C21.78 1.21228 18.5612 0 15.0497 0C6.73036 0 0 6.73036 0 15.0495C0 23.3686 6.73036 30.0989 15.0495 30.0989C18.561 30.0989 21.7798 28.8867 24.3299 26.8799C20.8602 24.1627 18.6029 19.8569 18.6029 15.0495Z" fill="#EB001B"/>
<path d="M48.7015 15.0495C48.7015 23.3684 41.9711 30.0989 33.652 30.0989C30.1405 30.0989 26.9216 28.8867 24.3716 26.8799C27.8831 24.121 30.0988 19.8569 30.0988 15.0495C30.0988 10.2421 27.8412 5.97797 24.3716 3.21883C26.9214 1.21228 30.1405 0 33.652 0C41.9711 0 48.7015 6.77225 48.7015 15.0495Z" fill="#F79E1B"/>
</g>
<defs>
<clipPath id="clip0_2659_1780">
<rect width="48.75" height="30" fill="white"/>
</clipPath>
</defs>
</svg>
