<svg width="53" height="18" viewBox="0 0 53 18" fill="none" xmlns="http://www.w3.org/2000/svg">
<g clip-path="url(#clip0_2659_1677)">
<path d="M27.4103 5.47142C27.3801 7.85559 29.5351 9.18597 31.1584 9.97704C32.8263 10.7886 33.3865 11.3091 33.3799 12.0349C33.3674 13.1456 32.0495 13.6359 30.8162 13.6549C28.6645 13.6883 27.4134 13.074 26.4188 12.6094L25.6437 16.2364C26.6416 16.6962 28.4894 17.0973 30.4054 17.1149C34.9032 17.1149 37.8457 14.8946 37.8617 11.4523C37.8793 7.08357 31.8188 6.84175 31.8602 4.88904C31.8745 4.29693 32.4395 3.66507 33.6776 3.50441C34.2904 3.42326 35.982 3.36115 37.9 4.24434L38.6527 0.735163C37.6213 0.359608 36.2957 -5.72205e-06 34.6452 -5.72205e-06C30.4119 -5.72205e-06 27.4343 2.25042 27.4103 5.47142ZM45.886 0.302259C45.0647 0.302259 44.3726 0.781328 44.0637 1.5165L37.6389 16.8571H42.1333L43.0277 14.3854H48.5198L49.0387 16.8571H53L49.5432 0.302259H45.886ZM46.5147 4.77434L47.8118 10.9909H44.2596L46.5147 4.77434ZM21.961 0.302465L18.4183 16.8569H22.7012L26.2422 0.302052L21.961 0.302465ZM15.6253 0.302465L11.1675 11.5701L9.36423 1.98936C9.15264 0.919834 8.31707 0.302259 7.38915 0.302259H0.102066L0 0.782986C1.49601 1.10761 3.19573 1.63119 4.22551 2.19142C4.85571 2.53364 5.03541 2.8328 5.24245 3.64602L8.65784 16.8571H13.1838L20.1226 0.302259L15.6253 0.302465Z" fill="url(#paint0_linear_2659_1677)"/>
</g>
<defs>
<linearGradient id="paint0_linear_2659_1677" x1="2436.62" y1="51.4473" x2="2486.16" y2="-1706.27" gradientUnits="userSpaceOnUse">
<stop stop-color="#222357"/>
<stop offset="1" stop-color="#254AA5"/>
</linearGradient>
<clipPath id="clip0_2659_1677">
<rect width="53" height="17.1836" fill="white"/>
</clipPath>
</defs>
</svg>
