<svg width="24" height="24" viewBox="0 0 24 24" fill="none" xmlns="http://www.w3.org/2000/svg">
<path d="M22.0035 11.9505L16.2045 9.86625L13.7805 6.82275C13.5697 6.56506 13.3042 6.35752 13.0033 6.21521C12.7023 6.0729 12.3734 5.99939 12.0405 6H6.0435C5.67675 6.00001 5.31556 6.08967 4.99138 6.26117C4.6672 6.43267 4.38986 6.68082 4.1835 6.984L2.1495 9.97125C1.72637 10.5932 1.50007 11.328 1.5 12.0803V18C1.5 18.1989 1.57902 18.3897 1.71967 18.5303C1.86032 18.671 2.05109 18.75 2.25 18.75H3.8565C4.01965 19.3937 4.39277 19.9646 4.91683 20.3724C5.44089 20.7802 6.08597 21.0016 6.75 21.0016C7.41403 21.0016 8.05911 20.7802 8.58317 20.3724C9.10723 19.9646 9.48035 19.3937 9.6435 18.75H14.3565C14.5197 19.3937 14.8928 19.9646 15.4168 20.3724C15.9409 20.7802 16.586 21.0016 17.25 21.0016C17.914 21.0016 18.5591 20.7802 19.0832 20.3724C19.6072 19.9646 19.9803 19.3937 20.1435 18.75H21.75C21.9489 18.75 22.1397 18.671 22.2803 18.5303C22.421 18.3897 22.5 18.1989 22.5 18V12.6563C22.5 12.5018 22.4523 12.3511 22.3634 12.2248C22.2745 12.0985 22.1489 12.0027 22.0035 11.9505ZM6.75 19.5C6.45333 19.5 6.16332 19.412 5.91665 19.2472C5.66997 19.0824 5.47771 18.8481 5.36418 18.574C5.25065 18.2999 5.22094 17.9983 5.27882 17.7074C5.3367 17.4164 5.47956 17.1491 5.68934 16.9393C5.89912 16.7296 6.16639 16.5867 6.45736 16.5288C6.74834 16.4709 7.04994 16.5007 7.32403 16.6142C7.59811 16.7277 7.83238 16.92 7.9972 17.1666C8.16203 17.4133 8.25 17.7033 8.25 18C8.2494 18.3976 8.09118 18.7788 7.81 19.06C7.52883 19.3412 7.14764 19.4994 6.75 19.5ZM17.25 19.5C16.9533 19.5 16.6633 19.412 16.4166 19.2472C16.17 19.0824 15.9777 18.8481 15.8642 18.574C15.7506 18.2999 15.7209 17.9983 15.7788 17.7074C15.8367 17.4164 15.9796 17.1491 16.1893 16.9393C16.3991 16.7296 16.6664 16.5867 16.9574 16.5288C17.2483 16.4709 17.5499 16.5007 17.824 16.6142C18.0981 16.7277 18.3324 16.92 18.4972 17.1666C18.662 17.4133 18.75 17.7033 18.75 18C18.7494 18.3976 18.5912 18.7788 18.31 19.06C18.0288 19.3412 17.6476 19.4994 17.25 19.5ZM21 17.25H20.1435C19.9803 16.6063 19.6072 16.0354 19.0832 15.6276C18.5591 15.2198 17.914 14.9984 17.25 14.9984C16.586 14.9984 15.9409 15.2198 15.4168 15.6276C14.8928 16.0354 14.5197 16.6063 14.3565 17.25H9.6435C9.48035 16.6063 9.10723 16.0354 8.58317 15.6276C8.05911 15.2198 7.41403 14.9984 6.75 14.9984C6.08597 14.9984 5.44089 15.2198 4.91683 15.6276C4.39277 16.0354 4.01965 16.6063 3.8565 17.25H3V12.0803C3.00001 11.6287 3.1359 11.1876 3.39 10.8143L5.42325 7.8285C5.492 7.72731 5.58447 7.64448 5.69258 7.58722C5.80069 7.52996 5.92116 7.50002 6.0435 7.5H12.0405C12.1496 7.50002 12.2574 7.52386 12.3564 7.56984C12.4554 7.61583 12.5431 7.68286 12.6135 7.76625L15.1635 10.9673C15.2502 11.0761 15.3655 11.1587 15.4965 11.2058L21 13.1835V17.25Z" fill="#808080"/>
</svg>
