<svg width="24" height="24" viewBox="0 0 24 24" fill="none" xmlns="http://www.w3.org/2000/svg">
<path d="M12.7498 1.5C12.5509 1.5 12.3602 1.57902 12.2195 1.71967C12.0789 1.86032 11.9998 2.05109 11.9998 2.25V11.25C11.9998 11.4489 12.0789 11.6397 12.2195 11.7803C12.3602 11.921 12.5509 12 12.7498 12H21.7498C21.9488 12 22.1395 11.921 22.2802 11.7803C22.4208 11.6397 22.4998 11.4489 22.4998 11.25C22.4998 9.96961 22.2476 8.70176 21.7577 7.51884C21.2677 6.33591 20.5495 5.26108 19.6441 4.35571C18.7388 3.45034 17.6639 2.73216 16.481 2.24217C15.2981 1.75219 14.0302 1.5 12.7498 1.5ZM13.4998 10.5V3.033C15.4212 3.20814 17.2203 4.0511 18.5845 5.4153C19.9487 6.77951 20.7917 8.57869 20.9668 10.5H13.4998ZM10.4998 5.283C10.4998 5.17881 10.4781 5.07577 10.4361 4.98044C10.3941 4.8851 10.3327 4.79957 10.2558 4.72929C10.1788 4.65901 10.0881 4.60553 9.98941 4.57225C9.89068 4.53897 9.7861 4.52662 9.68234 4.536C7.97901 4.6913 6.35519 5.32875 5.0011 6.37369C3.64701 7.41864 2.61872 8.82779 2.03667 10.4361C1.45462 12.0444 1.34291 13.7853 1.71463 15.4548C2.08636 17.1243 2.92612 18.6534 4.13555 19.8628C5.34499 21.0722 6.87401 21.912 8.54353 22.2837C10.213 22.6554 11.9539 22.5437 13.5622 21.9617C15.1705 21.3796 16.5797 20.3513 17.6246 18.9972C18.6696 17.6431 19.307 16.0193 19.4623 14.316C19.4715 14.2125 19.459 14.1082 19.4257 14.0097C19.3924 13.9113 19.3391 13.8208 19.269 13.7441C19.1989 13.6674 19.1136 13.6061 19.0185 13.5641C18.9235 13.522 18.8208 13.5002 18.7168 13.5H10.4998V5.283ZM2.99984 13.5C2.99949 11.771 3.59651 10.095 4.68988 8.75565C5.78324 7.41627 7.30579 6.4958 8.99984 6.15V14.25C8.99984 14.4489 9.07886 14.6397 9.21951 14.7803C9.36016 14.921 9.55093 15 9.74984 15H17.8498C17.4735 16.817 16.4371 18.4301 14.9409 19.5277C13.4448 20.6254 11.595 21.1296 9.74876 20.9431C7.90256 20.7566 6.19095 19.8926 4.94451 18.518C3.69808 17.1434 3.00525 15.3556 2.99984 13.5Z" fill="#808080"/>
</svg>
