<svg width="29" height="30" viewBox="0 0 29 30" fill="none" xmlns="http://www.w3.org/2000/svg">
<path fill-rule="evenodd" clip-rule="evenodd" d="M8.18558 8.23333L9.16674 24.7247C9.18151 24.9704 9.28952 25.2013 9.46871 25.3702C9.6479 25.539 9.88477 25.6332 10.131 25.6333H18.8697C19.1159 25.6332 19.3528 25.539 19.5319 25.3702C19.7111 25.2013 19.8191 24.9704 19.8339 24.7247L20.8151 8.23333H8.18558ZM22.2687 8.23333L21.2815 24.8105C21.2448 25.4253 20.9748 26.003 20.5265 26.4254C20.0783 26.8479 19.4856 27.0832 18.8697 27.0833H10.131C9.51504 27.0832 8.92239 26.8479 8.47412 26.4254C8.02585 26.003 7.75581 25.4253 7.71916 24.8105L6.73195 8.23333H4.22949V7.3875C4.22949 7.22726 4.29315 7.07359 4.40645 6.96029C4.51975 6.84699 4.67342 6.78333 4.83366 6.78333H24.167C24.3272 6.78333 24.4809 6.84699 24.5942 6.96029C24.7075 7.07359 24.7712 7.22726 24.7712 7.3875V8.23333H22.2687ZM16.917 4.125C17.0772 4.125 17.2309 4.18865 17.3442 4.30196C17.4575 4.41526 17.5212 4.56893 17.5212 4.72917V5.575H11.4795V4.72917C11.4795 4.56893 11.5431 4.41526 11.6564 4.30196C11.7698 4.18865 11.9234 4.125 12.0837 4.125H16.917ZM11.4795 11.375H12.9295L13.5337 22.25H12.0837L11.4795 11.375ZM16.0712 11.375H17.5212L16.917 22.25H15.467L16.0712 11.375Z" fill="black"/>
</svg>
