<svg width="24" height="24" viewBox="0 0 24 24" fill="none" xmlns="http://www.w3.org/2000/svg">
<rect width="24" height="24" fill="white"/>
<path fill-rule="evenodd" clip-rule="evenodd" d="M6.57555 5.71316L7.46234 20.6182C7.47569 20.8403 7.57331 21.049 7.73526 21.2016C7.89722 21.3543 8.11131 21.4393 8.33384 21.4395H16.2319C16.4545 21.4393 16.6686 21.3543 16.8305 21.2016C16.9925 21.049 17.0901 20.8403 17.1034 20.6182L17.9902 5.71316H6.57555ZM19.304 5.71316L18.4118 20.6957C18.3787 21.2515 18.1346 21.7736 17.7294 22.1554C17.3243 22.5372 16.7887 22.7499 16.2319 22.75H8.33384C7.77714 22.7499 7.24149 22.5372 6.83634 22.1554C6.43119 21.7736 6.18712 21.2515 6.154 20.6957L5.26175 5.71316H3V4.94868C3 4.80386 3.05753 4.66497 3.15994 4.56257C3.26234 4.46016 3.40123 4.40263 3.54605 4.40263H21.0197C21.1646 4.40263 21.3035 4.46016 21.4059 4.56257C21.5083 4.66497 21.5658 4.80386 21.5658 4.94868V5.71316H19.304ZM14.4671 2C14.6119 2 14.7508 2.05753 14.8532 2.15994C14.9556 2.26234 15.0132 2.40123 15.0132 2.54605V3.31053H9.55263V2.54605C9.55263 2.40123 9.61016 2.26234 9.71257 2.15994C9.81497 2.05753 9.95386 2 10.0987 2H14.4671ZM9.55263 8.55263H10.8632L11.4092 18.3816H10.0987L9.55263 8.55263ZM13.7026 8.55263H15.0132L14.4671 18.3816H13.1566L13.7026 8.55263Z" fill="black"/>
</svg>
