<svg width="24" height="24" viewBox="0 0 24 24" fill="none" xmlns="http://www.w3.org/2000/svg">
<g clip-path="url(#clip0_27_2598)">
<path d="M18.6667 2.66663H8.00008C7.64646 2.66663 7.30732 2.8071 7.05727 3.05715C6.80722 3.3072 6.66675 3.64634 6.66675 3.99996H18.6667V20H8.00008V13.4666H6.66675V20C6.66675 20.3536 6.80722 20.6927 7.05727 20.9428C7.30732 21.1928 7.64646 21.3333 8.00008 21.3333H18.6667C19.0204 21.3333 19.3595 21.1928 19.6096 20.9428C19.8596 20.6927 20.0001 20.3536 20.0001 20V3.99996C20.0001 3.64634 19.8596 3.3072 19.6096 3.05715C19.3595 2.8071 19.0204 2.66663 18.6667 2.66663Z" fill="#808080"/>
<path d="M10.08 12.3066C10.0102 12.3664 9.95353 12.4399 9.91352 12.5227C9.8735 12.6054 9.85101 12.6955 9.84747 12.7873C9.84392 12.8791 9.85939 12.9706 9.89291 13.0562C9.92642 13.1417 9.97726 13.2194 10.0422 13.2844C10.1072 13.3494 10.1849 13.4002 10.2705 13.4337C10.356 13.4672 10.4476 13.4827 10.5394 13.4792C10.6312 13.4756 10.7213 13.4531 10.804 13.4131C10.8867 13.3731 10.9602 13.3164 11.02 13.2466L14.88 9.38664L11.0267 5.52664C10.8991 5.41742 10.7351 5.36035 10.5673 5.36683C10.3995 5.37331 10.2404 5.44287 10.1216 5.5616C10.0029 5.68032 9.93334 5.83948 9.92686 6.00727C9.92038 6.17505 9.97745 6.3391 10.0867 6.46664L12.3333 8.66664H2.66667C2.48986 8.66664 2.32029 8.73688 2.19526 8.8619C2.07024 8.98692 2 9.15649 2 9.3333C2 9.51012 2.07024 9.67968 2.19526 9.80471C2.32029 9.92973 2.48986 9.99997 2.66667 9.99997H12.3333L10.08 12.3066Z" fill="#808080"/>
</g>
<defs>
<clipPath id="clip0_27_2598">
<rect width="24" height="24" fill="white"/>
</clipPath>
</defs>
</svg>
