<svg width="24" height="24" viewBox="0 0 24 24" fill="none" xmlns="http://www.w3.org/2000/svg">
<path d="M6.75 2.5H17.25V5.25C17.25 6.82 16.56 8.23 15.467 9.192C17.3393 9.97593 18.8928 11.3678 19.877 13.143L20.362 14.018L18.612 14.988L18.128 14.113C17.3775 12.7537 16.1964 11.6825 14.7704 11.068C13.3445 10.4535 11.7548 10.3305 10.2513 10.7184C8.7478 11.1063 7.41596 11.983 6.46532 13.2107C5.51469 14.4384 4.99921 15.9473 5 17.5V18C5 18.5304 5.21071 19.0391 5.58579 19.4142C5.96086 19.7893 6.46957 20 7 20H14V22H7C5.93913 22 4.92172 21.5786 4.17157 20.8284C3.42143 20.0783 3 19.0609 3 18V17.5C2.99949 15.7237 3.5246 13.9871 4.50919 12.5087C5.49378 11.0303 6.89383 9.87625 8.533 9.192C7.97228 8.69975 7.52315 8.09343 7.21566 7.41361C6.90817 6.73378 6.74941 5.99613 6.75 5.25V2.5ZM12 8.5C12.862 8.5 13.6886 8.15759 14.2981 7.5481C14.9076 6.9386 15.25 6.11195 15.25 5.25V4.5H8.75V5.25C8.75 6.11195 9.09241 6.9386 9.7019 7.5481C10.3114 8.15759 11.138 8.5 12 8.5ZM16 16H23V18H16V16ZM16 20H23V22H16V20Z" fill="#808080"/>
</svg>
