<svg width="29" height="29" viewBox="0 0 29 29" fill="none" xmlns="http://www.w3.org/2000/svg">
<path d="M8.7001 5.79998C7.93097 5.79998 7.19334 6.10551 6.64949 6.64937C6.10563 7.19322 5.8001 7.93085 5.8001 8.69998V20.3C5.8001 21.0691 6.10563 21.8067 6.64949 22.3506C7.19334 22.8944 7.93097 23.2 8.7001 23.2H20.3001C21.0692 23.2 21.8069 22.8944 22.3507 22.3506C22.8946 21.8067 23.2001 21.0691 23.2001 20.3V16.675C23.2001 16.4827 23.2765 16.2983 23.4124 16.1623C23.5484 16.0264 23.7328 15.95 23.9251 15.95C24.1174 15.95 24.3018 16.0264 24.4377 16.1623C24.5737 16.2983 24.6501 16.4827 24.6501 16.675V20.3C24.6501 21.4537 24.1918 22.5601 23.376 23.3759C22.5602 24.1917 21.4538 24.65 20.3001 24.65H8.7001C7.54641 24.65 6.43997 24.1917 5.62418 23.3759C4.8084 22.5601 4.3501 21.4537 4.3501 20.3V8.69998C4.3501 7.54628 4.8084 6.43984 5.62418 5.62406C6.43997 4.80828 7.54641 4.34998 8.7001 4.34998H12.3251C12.5174 4.34998 12.7018 4.42636 12.8378 4.56232C12.9737 4.69829 13.0501 4.88269 13.0501 5.07498C13.0501 5.26726 12.9737 5.45166 12.8378 5.58763C12.7018 5.72359 12.5174 5.79998 12.3251 5.79998H8.7001ZM15.9501 5.07498C15.9501 4.88269 16.0265 4.69829 16.1624 4.56232C16.2984 4.42636 16.4828 4.34998 16.6751 4.34998H23.9251C24.1174 4.34998 24.3018 4.42636 24.4377 4.56232C24.5737 4.69829 24.6501 4.88269 24.6501 5.07498V12.325C24.6501 12.5173 24.5737 12.7017 24.4377 12.8376C24.3018 12.9736 24.1174 13.05 23.9251 13.05C23.7328 13.05 23.5484 12.9736 23.4124 12.8376C23.2765 12.7017 23.2001 12.5173 23.2001 12.325V6.82513L17.1884 12.8383C17.0523 12.9744 16.8676 13.0509 16.6751 13.0509C16.4826 13.0509 16.2979 12.9744 16.1618 12.8383C16.0257 12.7021 15.9492 12.5175 15.9492 12.325C15.9492 12.1325 16.0257 11.9478 16.1618 11.8117L22.1749 5.79998H16.6751C16.4828 5.79998 16.2984 5.72359 16.1624 5.58763C16.0265 5.45166 15.9501 5.26726 15.9501 5.07498Z" fill="black"/>
</svg>
