<svg width="19" height="19" viewBox="0 0 19 19" fill="none" xmlns="http://www.w3.org/2000/svg">
<path d="M7.91699 9.49999C7.91699 9.91992 8.08381 10.3226 8.38074 10.6196C8.67767 10.9165 9.0804 11.0833 9.50033 11.0833C9.92025 11.0833 10.323 10.9165 10.6199 10.6196C10.9168 10.3226 11.0837 9.91992 11.0837 9.49999C11.0837 9.08006 10.9168 8.67734 10.6199 8.3804C10.323 8.08347 9.92025 7.91666 9.50033 7.91666C9.0804 7.91666 8.67767 8.08347 8.38074 8.3804C8.08381 8.67734 7.91699 9.08006 7.91699 9.49999ZM7.91699 4.74999C7.91699 5.16992 8.08381 5.57264 8.38074 5.86958C8.67767 6.16651 9.0804 6.33332 9.50033 6.33332C9.92025 6.33332 10.323 6.16651 10.6199 5.86958C10.9168 5.57264 11.0837 5.16992 11.0837 4.74999C11.0837 4.33006 10.9168 3.92734 10.6199 3.6304C10.323 3.33347 9.92025 3.16666 9.50033 3.16666C9.0804 3.16666 8.67767 3.33347 8.38074 3.6304C8.08381 3.92734 7.91699 4.33006 7.91699 4.74999ZM7.91699 14.25C7.91699 14.6699 8.08381 15.0726 8.38074 15.3696C8.67767 15.6665 9.0804 15.8333 9.50033 15.8333C9.92025 15.8333 10.323 15.6665 10.6199 15.3696C10.9168 15.0726 11.0837 14.6699 11.0837 14.25C11.0837 13.8301 10.9168 13.4273 10.6199 13.1304C10.323 12.8335 9.92025 12.6667 9.50033 12.6667C9.0804 12.6667 8.67767 12.8335 8.38074 13.1304C8.08381 13.4273 7.91699 13.8301 7.91699 14.25Z" fill="#9E9E9E"/>
</svg>
