<svg width="24" height="24" viewBox="0 0 24 24" fill="none" xmlns="http://www.w3.org/2000/svg">
<path d="M20.9595 11.583C20.9865 11.842 21 12.1145 21 12.4005C21 14.346 20.322 15.654 19.665 16.473C19.3998 16.8056 19.0962 17.1057 18.7605 17.367C18.6464 17.4536 18.5283 17.5347 18.4065 17.61L18.393 17.6175C18.2741 17.6819 18.1748 17.7772 18.1056 17.8934C18.0364 18.0096 17.9999 18.1423 18 18.2775V20.25C18 20.4489 17.921 20.6397 17.7803 20.7803C17.6397 20.921 17.4489 21 17.25 21H16.5C16.5 20.6022 16.342 20.2206 16.0607 19.9393C15.7794 19.658 15.3978 19.5 15 19.5H12C11.6022 19.5 11.2206 19.658 10.9393 19.9393C10.658 20.2206 10.5 20.6022 10.5 21H9.75C9.55109 21 9.36032 20.921 9.21967 20.7803C9.07902 20.6397 9 20.4489 9 20.25V19.3455C9.00019 19.1594 8.93121 18.98 8.80647 18.8419C8.68173 18.7039 8.51013 18.6171 8.325 18.5985L8.181 18.5655C7.36742 18.3496 6.62602 17.9209 6.033 17.3235C5.37 16.6485 4.9635 15.7605 4.746 15.144C4.53 14.5305 4.038 13.9755 3.336 13.7775C3.23983 13.7497 3.15518 13.6917 3.09464 13.6119C3.03411 13.5322 3.00092 13.4351 3 13.335V12.144C2.99992 12.0495 3.03062 11.9575 3.08745 11.882C3.14428 11.8065 3.22416 11.7516 3.315 11.7255C4.0425 11.517 4.5285 10.929 4.734 10.308C4.902 9.798 5.199 9.144 5.682 8.6535C6.23502 8.10071 6.87439 7.6417 7.575 7.2945C7.635 7.2645 7.68 7.243 7.71 7.23L7.74 7.215L7.746 7.2135C7.881 7.15563 7.99604 7.05939 8.07683 6.93673C8.15763 6.81407 8.20063 6.67038 8.2005 6.5235V4.0125C8.53365 4.29767 8.88434 4.56168 9.2505 4.803C9.726 5.115 10.281 5.4105 10.8615 5.568C11.0325 5.076 11.2665 4.608 11.5575 4.176H11.5485C11.13 4.1325 10.6185 3.906 10.071 3.5475C9.56919 3.2103 9.09743 2.83039 8.661 2.412C8.49826 2.25833 8.29439 2.15526 8.07416 2.11531C7.85393 2.07537 7.62684 2.10027 7.4205 2.187C7.20871 2.27093 7.02693 2.41638 6.89859 2.60461C6.77026 2.79283 6.70126 3.01519 6.7005 3.243V6.0585C5.9347 6.46915 5.23242 6.98854 4.6155 7.6005C3.9 8.3235 3.5115 9.2265 3.3105 9.837C3.2265 10.0875 3.0585 10.239 2.9025 10.2825C2.49844 10.3982 2.14303 10.6422 1.89 10.9778C1.63696 11.3134 1.50006 11.7222 1.5 12.1425V13.335C1.5 14.2125 2.0835 14.982 2.9265 15.2205C3.02243 15.2539 3.10911 15.3095 3.17949 15.3827C3.24987 15.456 3.30195 15.5448 3.3315 15.642C3.5805 16.35 4.0785 17.4765 4.9665 18.3765C5.67351 19.091 6.54266 19.6241 7.5 19.9305V20.25C7.5 20.8467 7.73705 21.419 8.15901 21.841C8.58097 22.2629 9.15326 22.5 9.75 22.5H10.5C10.8978 22.5 11.2794 22.342 11.5607 22.0607C11.842 21.7794 12 21.3978 12 21H15C15 21.3978 15.158 21.7794 15.4393 22.0607C15.7206 22.342 16.1022 22.5 16.5 22.5H17.25C17.8467 22.5 18.419 22.2629 18.841 21.841C19.2629 21.419 19.5 20.8467 19.5 20.25V18.6855C19.555 18.6465 19.614 18.6025 19.677 18.5535C20.1067 18.2195 20.4954 17.8358 20.835 17.4105C21.678 16.3605 22.5 14.7285 22.5 12.4005C22.498 11.4275 22.363 10.5515 22.095 9.7725C21.8279 10.4391 21.4433 11.0523 20.9595 11.583ZM20.6865 5.8125C21.0617 6.71733 21.1314 7.71989 20.8851 8.66795C20.6387 9.61601 20.0897 10.4578 19.3215 11.0655C18.696 11.559 17.8395 11.5215 17.1045 11.2155L13.5195 9.732C12.7845 9.4275 12.1515 8.8485 12.0585 8.058C11.9339 6.97981 12.2031 5.89292 12.8165 4.9975C13.4299 4.10207 14.3461 3.45841 15.3965 3.18504C16.4469 2.91168 17.5606 3.02702 18.5327 3.50982C19.5047 3.99263 20.2696 4.81038 20.6865 5.8125ZM18.3915 9.888C18.802 9.56358 19.1207 9.13747 19.3157 8.65194C19.5108 8.1664 19.5755 7.6383 19.5035 7.12002C19.4315 6.60174 19.2253 6.11129 18.9053 5.6973C18.5853 5.28332 18.1626 4.96019 17.6791 4.75996C17.1957 4.55973 16.6683 4.48935 16.1493 4.55582C15.6303 4.62228 15.1377 4.82328 14.7203 5.13887C14.3029 5.45445 13.9753 5.87367 13.7699 6.35494C13.5646 6.83621 13.4886 7.3628 13.5495 7.8825C13.5525 7.9125 13.5645 7.968 13.6485 8.0565C13.7764 8.18155 13.9278 8.27996 14.094 8.346L17.679 9.831C17.8421 9.90597 18.02 9.94339 18.1995 9.9405C18.3195 9.9375 18.369 9.906 18.3915 9.888ZM8.625 11.25C8.92337 11.25 9.20952 11.1315 9.4205 10.9205C9.63147 10.7095 9.75 10.4234 9.75 10.125C9.75 9.82663 9.63147 9.54048 9.4205 9.3295C9.20952 9.11852 8.92337 9 8.625 9C8.32663 9 8.04048 9.11852 7.8295 9.3295C7.61853 9.54048 7.5 9.82663 7.5 10.125C7.5 10.4234 7.61853 10.7095 7.8295 10.9205C8.04048 11.1315 8.32663 11.25 8.625 11.25Z" fill="#808080"/>
</svg>
